<svg id="Ban" xmlns="http://www.w3.org/2000/svg" viewBox="0 0 1387.59 250.3"><defs><style>.cls-1{fill:#201351;}.cls-2{fill:#ffcb1b;}.cls-3{font-size:140px;font-family:Jura-SemiBold, Jura;font-weight:700;letter-spacing:0.03em;}.cls-3,.cls-5{fill:#878787;}.cls-4{letter-spacing:0.05em;}</style></defs><title>Artboard 1 copy 10</title><g id="MESG-HEAD"><g id="Logo"><path id="MESG" class="cls-1" d="M110.22,76.29v97.76a6.93,6.93,0,0,1-1.79,5.11,6.83,6.83,0,0,1-5.11,1.79,6.93,6.93,0,0,1-5.11-1.79,6.83,6.83,0,0,1-1.79-5.11V97.83l-30.29,44.6a10.65,10.65,0,0,1-3.64,3.39,10.2,10.2,0,0,1-4.79,1.09,6,6,0,0,1-3.51-1.09A13.75,13.75,0,0,1,51,142.43L20.58,97.7v76.36a6.93,6.93,0,0,1-1.79,5.11A6.93,6.93,0,0,1,13.67,181a6.93,6.93,0,0,1-5.11-1.79,6.83,6.83,0,0,1-1.79-5.11V76.29a6.93,6.93,0,0,1,1.79-5.11,6.83,6.83,0,0,1,5.11-1.79c3.07,0,5.62,1.47,7.54,4.47l37.51,56.42L96.23,73.87a9.31,9.31,0,0,1,8.37-4.47C108.37,69.39,110.22,71.69,110.22,76.29ZM232,168.95a6.92,6.92,0,0,1-5.11,12h-59a6.93,6.93,0,0,1-5.11-1.79,6.83,6.83,0,0,1-1.79-5.11V76.29a6.93,6.93,0,0,1,1.79-5.11,6.83,6.83,0,0,1,5.11-1.79h59a6.92,6.92,0,1,1,0,13.8H174.76v34.57h32.72a6.92,6.92,0,1,1,0,13.8H174.76v35.53H226.9A7,7,0,0,1,232,168.95Zm50.42,6.33c-5.24-3.77-8.5-9.65-9.78-17.51-.19-2.3.26-4.09,1.47-5.37a6.85,6.85,0,0,1,5.24-1.92,6.71,6.71,0,0,1,4.92,1.6,9.31,9.31,0,0,1,2.3,5.18c.77,3.71,2.49,6.33,5.18,7.73s6.9,2.11,12.59,2.11h23.71c4.86,0,8.5-.58,11.12-1.66a10.08,10.08,0,0,0,5.5-5.5c1.09-2.56,1.66-6.2,1.66-10.93,0-7-1.34-11.82-4-14.5s-7.41-4-14.31-4H307.67c-10.29,0-18-2.49-23-7.54s-7.54-12.78-7.54-23.19,2.49-18,7.48-22.94,12.65-7.48,22.94-7.48h19.55q26,0,30,21.73a6.17,6.17,0,0,1-1.34,5.37,7.12,7.12,0,0,1-5.43,1.92,6.73,6.73,0,0,1-4.92-1.66,8.81,8.81,0,0,1-2.11-5.11A9.93,9.93,0,0,0,338.34,85c-2.43-1.21-6.13-1.79-11.18-1.79H307.54c-4.47,0-7.92.51-10.29,1.47a8.53,8.53,0,0,0-4.92,5c-1,2.36-1.41,5.75-1.41,10.1s.51,7.92,1.47,10.29a9.22,9.22,0,0,0,5,5.11c2.36,1,5.81,1.53,10.29,1.53h20.38c10.86,0,18.91,2.62,24.22,7.92s7.92,13.35,7.92,24.35-2.62,18.91-7.92,24.09S339,181,328.11,181H304.41C295,181,287.67,179,282.43,175.27Zm129.46-3.32c-6-6-8.95-15.27-8.95-27.86V106.26c0-12.59,3-21.92,8.95-28s15.21-9,27.73-8.88h19.94c10.29,0,18.21,2.11,23.64,6.39s8.56,11,9.46,20.06c.32,2.3-.13,4.09-1.34,5.24a7,7,0,0,1-5.24,1.79,6.91,6.91,0,0,1-5-1.73A8.85,8.85,0,0,1,478.79,96c-.58-4.92-2.24-8.31-5.11-10.1s-7.54-2.68-14.12-2.68H439.62c-5.94-.13-10.54.58-13.8,2a12.66,12.66,0,0,0-7,7.09c-1.34,3.32-2,7.92-2,14v37.83c0,6,.7,10.67,2.17,13.93a13,13,0,0,0,7,7c3.26,1.41,7.86,2.11,13.93,2.11h19.74q7.86,0,12.08-1.73a10.46,10.46,0,0,0,5.94-5.94q1.73-4.22,1.73-12.08v-7.73l-12.84-.19q-6.9,0-6.9-6.9a6.93,6.93,0,0,1,1.79-5.11,6.83,6.83,0,0,1,5.11-1.79l19.74.19a6.24,6.24,0,0,1,6.9,6.9v14.63c0,11.63-2.68,20.13-8.12,25.5s-13.93,8.05-25.43,8.05H439.81C427.16,181,417.89,178,411.88,171.95Z"/><path id="Lines" class="cls-2" d="M320.77,34.06a2,2,0,0,1-1.21-.38,2,2,0,0,1-.38-2.88l22.62-30A2.12,2.12,0,0,1,343.45,0H498a2,2,0,0,1,2,2,2,2,0,0,1-2,2H344.35l-22,29.14A2.09,2.09,0,0,1,320.77,34.06ZM499.87,18.47a2,2,0,0,0-2-2H355.53a2,2,0,1,0,0,4.09h142.3A2,2,0,0,0,499.87,18.47ZM159.23,249.52l22.62-30a2.05,2.05,0,1,0-3.26-2.49l-22,29.14H2a2,2,0,0,0,0,4.09H157.64A1.78,1.78,0,0,0,159.23,249.52Zm-11.76-17.7a2,2,0,0,0-2-2H2a2,2,0,0,0,0,4.09H145.43A2,2,0,0,0,147.48,231.82Z"/></g><text class="cls-3" transform="translate(686.06 172.43)">Aw<tspan class="cls-4" x="201.18" y="0">esome</tspan></text><path id="Separator-grey" class="cls-5" d="M595.27,180.9a2,2,0,0,0,2-2V71.44a2,2,0,1,0-4.09,0V178.85A2,2,0,0,0,595.27,180.9Z"/></g></svg>