<?xml version="1.0" encoding="utf-8"?>
<!-- Generator: Adobe Illustrator 21.0.0, SVG Export Plug-In . SVG Version: 6.00 Build 0)  -->
<svg version="1.1" id="Ban" xmlns="http://www.w3.org/2000/svg" xmlns:xlink="http://www.w3.org/1999/xlink" x="0px" y="0px"
	 viewBox="0 0 1387.6 250.3" style="enable-background:new 0 0 1387.6 250.3;" xml:space="preserve">
<style type="text/css">
	.st0{fill:#201351;}
	.st1{fill:#FFCB1B;}
	.st2{enable-background:new    ;}
	.st3{fill:#878787;}
</style>
<title>Artboard 1 copy 10</title>
<g id="MESG-HEAD">
	<g id="Logo">
		<path id="MESG" class="st0" d="M110.2,76.3v97.8c0.1,1.9-0.5,3.7-1.8,5.1c-1.4,1.3-3.2,1.9-5.1,1.8c-1.9,0.1-3.7-0.5-5.1-1.8
			c-1.3-1.4-1.9-3.2-1.8-5.1V97.8l-30.3,44.6c-0.9,1.4-2.2,2.6-3.6,3.4c-1.5,0.7-3.1,1.1-4.8,1.1c-1.3,0-2.5-0.4-3.5-1.1
			c-1.2-0.9-2.3-2.1-3.2-3.4L20.6,97.7v76.4c0.1,1.9-0.5,3.7-1.8,5.1c-1.4,1.3-3.2,1.9-5.1,1.8c-1.9,0.1-3.7-0.5-5.1-1.8
			c-1.3-1.4-1.9-3.2-1.8-5.1V76.3c-0.1-1.9,0.5-3.7,1.8-5.1c1.4-1.3,3.2-1.9,5.1-1.8c3.1,0,5.6,1.5,7.5,4.5l37.5,56.4l37.5-56.4
			c1.8-2.9,5-4.6,8.4-4.5C108.4,69.4,110.2,71.7,110.2,76.3z M232,168.9c2.8,2.6,3,7,0.4,9.8c-1.4,1.5-3.4,2.4-5.5,2.2h-59
			c-1.9,0.1-3.7-0.5-5.1-1.8c-1.3-1.4-1.9-3.2-1.8-5.1V76.3c-0.1-1.9,0.5-3.7,1.8-5.1c1.4-1.3,3.2-1.9,5.1-1.8h59
			c3.8-0.3,7.1,2.6,7.4,6.4s-2.6,7.1-6.4,7.4c-0.3,0-0.7,0-1.1,0h-52.1v34.6h32.7c3.8-0.3,7.1,2.6,7.4,6.4c0.3,3.8-2.6,7.1-6.4,7.4
			c-0.4,0-0.7,0-1.1,0h-32.7v35.5h52.1C228.8,167,230.6,167.7,232,168.9z M282.4,175.3c-5.2-3.8-8.5-9.6-9.8-17.5
			c-0.2-2.3,0.3-4.1,1.5-5.4c1.4-1.4,3.3-2.1,5.2-1.9c1.8-0.1,3.6,0.4,4.9,1.6c1.3,1.4,2.1,3.3,2.3,5.2c0.8,3.7,2.5,6.3,5.2,7.7
			s6.9,2.1,12.6,2.1H328c4.9,0,8.5-0.6,11.1-1.7c2.5-1,4.5-3,5.5-5.5c1.1-2.6,1.7-6.2,1.7-10.9c0-7-1.3-11.8-4-14.5s-7.4-4-14.3-4
			h-20.3c-10.3,0-18-2.5-23-7.5s-7.5-12.8-7.5-23.2s2.5-18,7.5-22.9s12.6-7.5,22.9-7.5h19.5c17.3,0,27.3,7.2,30,21.7
			c0.4,1.9-0.1,3.9-1.3,5.4c-1.5,1.4-3.4,2.1-5.4,1.9c-1.8,0.1-3.6-0.5-4.9-1.7c-1.2-1.4-2-3.2-2.1-5.1c-0.6-2.8-2.4-5.2-5-6.6
			c-2.4-1.2-6.1-1.8-11.2-1.8h-19.6c-4.5,0-7.9,0.5-10.3,1.5c-2.3,0.9-4.1,2.7-4.9,5c-1,2.4-1.4,5.8-1.4,10.1s0.5,7.9,1.5,10.3
			c0.9,2.3,2.7,4.1,5,5.1c2.4,1,5.8,1.5,10.3,1.5h20.4c10.9,0,18.9,2.6,24.2,7.9s7.9,13.3,7.9,24.3s-2.6,18.9-7.9,24.1
			S339,181,328.1,181h-23.7C295,181,287.7,179,282.4,175.3L282.4,175.3z M411.9,172c-6-6-9-15.3-9-27.9v-37.8c0-12.6,3-21.9,9-28
			s15.2-9,27.7-8.9h19.9c10.3,0,18.2,2.1,23.6,6.4s8.6,11,9.5,20.1c0.3,2.3-0.1,4.1-1.3,5.2c-1.4,1.3-3.3,1.9-5.2,1.8
			c-1.8,0.1-3.6-0.5-5-1.7c-1.3-1.4-2.1-3.2-2.3-5.1c-0.6-4.9-2.2-8.3-5.1-10.1s-7.5-2.7-14.1-2.7h-19.9c-5.9-0.1-10.5,0.6-13.8,2
			c-3.2,1.3-5.7,3.9-7,7.1c-1.3,3.3-2,7.9-2,14v37.8c0,6,0.7,10.7,2.2,13.9c1.3,3.2,3.8,5.7,7,7c3.3,1.4,7.9,2.1,13.9,2.1h19.7
			c5.2,0,9.3-0.6,12.1-1.7c2.7-1.1,4.9-3.2,5.9-5.9c1.2-2.8,1.7-6.8,1.7-12.1v-7.7l-12.8-0.2c-4.6,0-6.9-2.3-6.9-6.9
			c-0.1-1.9,0.5-3.7,1.8-5.1c1.4-1.3,3.2-1.9,5.1-1.8l19.7,0.2c3.4-0.4,6.5,2.1,6.9,5.5c0.1,0.5,0.1,0.9,0,1.4v14.6
			c0,11.6-2.7,20.1-8.1,25.5s-13.9,8.1-25.4,8.1h-19.9C427.2,181,417.9,178,411.9,172L411.9,172z"/>
		<path id="Lines" class="st1" d="M320.8,34.1c-0.4,0-0.9-0.1-1.2-0.4c-0.9-0.6-1.1-1.9-0.4-2.8c0,0,0-0.1,0.1-0.1l22.6-30
			c0.4-0.5,1-0.8,1.7-0.8H498c1.1,0,2,0.9,2,2s-0.9,2-2,2H344.4l-22,29.1C322,33.7,321.4,34,320.8,34.1z M499.9,18.5
			c0-1.1-0.9-2-2-2H355.5c-1.1,0-2,0.9-2,2s0.9,2,2,2h142.3c1.1,0,2-0.9,2-2C499.9,18.6,499.9,18.5,499.9,18.5z M159.2,249.5
			l22.6-30c0.7-0.9,0.5-2.2-0.4-2.9s-2.2-0.5-2.9,0.4l-22,29.1H2c-1.1,0-2,0.9-2,2s0.9,2,2,2h155.6
			C158.3,250.3,158.9,250,159.2,249.5z M147.5,231.8c0-1.1-0.9-2-2-2H2c-1.1,0-2,0.9-2,2s0.9,2,2,2h143.4c1.1,0,2-0.8,2.1-1.9
			C147.5,231.9,147.5,231.9,147.5,231.8L147.5,231.8z"/>
	</g>
	<g class="st2">
		<path class="st3" d="M773.6,167c0,2.2-1.3,3.9-3.8,4.9c-0.8,0.4-1.8,0.6-2.8,0.6c-2.2,0-3.9-1.3-4.9-3.8l-7.6-18.3H711l-7.3,18.3
			c-1,2.5-2.7,3.8-4.9,3.8c-0.9,0-1.8-0.2-2.7-0.6c-2.6-0.9-3.9-2.6-3.9-4.9c0-1,0.2-2,0.6-2.8l33.3-82c1.4-3.1,3.6-4.6,6.6-4.6h0.3
			c3.1,0.2,5.1,1.7,6.2,4.6l33.9,82C773.4,165,773.6,165.9,773.6,167z M715.6,138.5h34.2l-17.5-42.4L715.6,138.5z"/>
		<path class="st3" d="M881.1,106.8c0,0.9-0.2,1.8-0.6,2.7l-21.3,58.2c-1.1,3.2-3.3,4.8-6.6,4.8c-3.5,0-5.6-1.6-6.4-4.9l-13.7-45.8
			l-14.8,45.9c-0.5,1.5-1.2,2.7-2.3,3.5c-1.1,0.8-2.4,1.3-3.9,1.3c-3,0-5-1.6-6.2-4.8l-19.5-58.5c-0.3-0.8-0.4-1.6-0.4-2.4
			c0-2.4,1.4-4.1,4.2-4.9c0.9-0.3,1.8-0.4,2.5-0.4c2.2,0,3.9,1.4,4.9,4.2l15.4,45.8l14.4-45.8c0.9-3.1,3.2-4.6,6.7-4.6
			c3.3,0,5.4,1.6,6.3,4.9l13.7,45.5l15.8-45.9c1-2.8,2.7-4.2,4.9-4.2c0.5,0,1.4,0.2,2.7,0.6C879.7,102.9,881.1,104.5,881.1,106.8z"
			/>
	</g>
	<g class="st2">
		<path class="st3" d="M910.2,141.8v3.4c0,4.1,0.5,7.3,1.4,9.5c0.9,2.2,2.5,3.8,4.8,4.7c2.2,0.9,5.4,1.4,9.5,1.4h11.5
			c4.8,0,8.3-0.4,10.6-1.3c2.3-0.9,3.8-2.5,4.6-4.7c0.6-1.9,1.3-3.2,2.2-4.1c0.9-0.9,2.3-1.3,4.1-1.3c1.8,0,3.1,0.4,4.1,1.2
			c1,0.8,1.5,1.9,1.5,3.4c0,0.7,0,1.1-0.1,1.4c-2.1,11.5-11,17.2-26.9,17.2h-11.5c-9.3,0-16.2-2.2-20.7-6.7
			c-4.5-4.5-6.7-11.3-6.7-20.6v-16.2c0-9.4,2.2-16.4,6.7-20.9c4.5-4.5,11.4-6.7,20.7-6.6h11.5c9.3,0,16.2,2.2,20.7,6.7
			c4.5,4.5,6.7,11.4,6.7,20.7v7c0,1.9-0.5,3.3-1.5,4.3c-1,1-2.5,1.5-4.3,1.5H910.2z M910.2,130H953v-1.1c0-4.1-0.5-7.3-1.4-9.5
			c-0.9-2.2-2.5-3.8-4.8-4.8c-2.2-0.9-5.4-1.4-9.5-1.4h-11.5c-4.1-0.1-7.3,0.3-9.5,1.3c-2.2,0.9-3.8,2.5-4.8,4.8
			c-0.9,2.2-1.4,5.5-1.4,9.7V130z"/>
		<path class="st3" d="M993.5,157.7c-0.1-0.3-0.1-0.7-0.1-1.3c0-1.6,0.5-2.8,1.6-3.7c1.1-0.9,2.5-1.3,4.3-1.3c1.8,0,3.1,0.4,4.1,1.3
			c0.9,0.9,1.7,2.4,2.2,4.4c0.6,1.4,1.5,2.3,2.7,2.8c1.3,0.5,3.2,0.7,6,0.7h23c3.6,0,6.1-0.6,7.3-1.8c1.3-1.2,1.9-3.7,1.9-7.4
			c0-3.7-0.6-6.2-1.9-7.4c-1.3-1.2-3.7-1.8-7.3-1.8h-22.5c-13.5,0-20.3-6.8-20.3-20.3c0-6.9,1.7-12,5-15.4c3.4-3.4,8.4-5,15.3-5
			h21.8c11,0,17.5,4.6,19.5,13.9c0.1,0.3,0.1,0.7,0.1,1.3c0,1.5-0.5,2.7-1.6,3.6c-1.1,0.9-2.5,1.3-4.3,1.3c-1.8,0-3.1-0.4-4-1.3
			c-0.9-0.9-1.6-2.3-2.2-4.1c-0.6-1.1-1.4-1.9-2.5-2.2c-1.1-0.4-2.8-0.6-5-0.6h-21.8c-2.4,0-4.2,0.2-5.5,0.6c-1.2,0.4-2,1.2-2.5,2.5
			c-0.4,1.2-0.6,3.1-0.6,5.6c0,3.4,0.6,5.6,1.7,6.8c1.1,1.2,3.4,1.8,6.9,1.8h22.5c14,0,21,7,21,21s-7,21-21,21h-23
			C1002.4,172.4,995.5,167.5,993.5,157.7z"/>
		<path class="st3" d="M1093.5,165.7c-4.5-4.5-6.7-11.3-6.7-20.6v-16.2c0-9.3,2.2-16.2,6.7-20.7c4.5-4.5,11.4-6.7,20.7-6.7h11.5
			c9.3,0,16.2,2.2,20.7,6.7c4.5,4.5,6.7,11.4,6.7,20.7V145c0,9.3-2.2,16.2-6.7,20.7c-4.5,4.5-11.4,6.7-20.7,6.7h-11.5
			C1104.8,172.4,1097.9,170.2,1093.5,165.7z M1125.7,160.7c4.1,0,7.3-0.5,9.5-1.4c2.2-0.9,3.8-2.5,4.8-4.8c0.9-2.2,1.4-5.4,1.4-9.5
			v-16.1c0-4.1-0.5-7.3-1.4-9.5c-0.9-2.2-2.5-3.8-4.8-4.8c-2.2-0.9-5.4-1.4-9.5-1.4h-11.5c-4.2,0-7.4,0.5-9.6,1.4
			c-2.2,0.9-3.8,2.5-4.7,4.7c-0.9,2.2-1.4,5.4-1.4,9.6v16.2c0,4.1,0.5,7.3,1.4,9.5c0.9,2.2,2.5,3.8,4.8,4.7c2.2,0.9,5.4,1.4,9.5,1.4
			H1125.7z"/>
		<path class="st3" d="M1282.6,107.7c3.8,4.2,5.7,11,5.7,20.6v38.2c0,3.9-2,5.9-5.9,5.9s-5.9-2-5.9-5.9v-38.2c0-5.3-1-9.2-3.1-11.6
			c-2.1-2.4-5.4-3.6-9.9-3.6h-5.7c-5.3,0-9.1,1.2-11.4,3.6c-2.3,2.4-3.4,6.2-3.4,11.6v38.2c0,3.9-2,5.9-5.9,5.9s-5.9-2-5.9-5.9
			v-38.2c0-5.3-1-9.2-3.1-11.6c-2.1-2.4-5.4-3.6-9.9-3.6h-5.7c-5.3,0-9.1,1.2-11.4,3.6c-2.3,2.4-3.4,6.2-3.4,11.6v38.2
			c0,3.9-2,5.9-5.9,5.9c-3.9,0-5.9-2-5.9-5.9v-59.2c0-3.9,2-5.9,5.9-5.9c3.9,0,5.9,2,5.9,5.9v3.2c2.4-3.2,5.1-5.5,8.1-6.9
			c3-1.4,6.5-2.2,10.6-2.2h1.8c5.8,0,10.3,0.8,13.6,2.4c3.3,1.6,5.8,4.2,7.5,7.8c2.5-3.7,5.2-6.4,7.9-7.9c2.8-1.5,6.3-2.3,10.6-2.3
			h5.7C1272.4,101.4,1278.8,103.5,1282.6,107.7z"/>
		<path class="st3" d="M1331.5,141.8v3.4c0,4.1,0.5,7.3,1.4,9.5c0.9,2.2,2.5,3.8,4.8,4.7c2.2,0.9,5.4,1.4,9.5,1.4h11.5
			c4.8,0,8.3-0.4,10.6-1.3c2.3-0.9,3.8-2.5,4.5-4.7c0.6-1.9,1.3-3.2,2.2-4.1c0.9-0.9,2.3-1.3,4.1-1.3c1.8,0,3.2,0.4,4.1,1.2
			c1,0.8,1.5,1.9,1.5,3.4c0,0.7,0,1.1-0.1,1.4c-2.1,11.5-11,17.2-26.9,17.2h-11.5c-9.3,0-16.2-2.2-20.7-6.7
			c-4.5-4.5-6.7-11.3-6.7-20.6v-16.2c0-9.4,2.2-16.4,6.7-20.9c4.5-4.5,11.4-6.7,20.7-6.6h11.5c9.3,0,16.2,2.2,20.7,6.7
			c4.5,4.5,6.7,11.4,6.7,20.7v7c0,1.9-0.5,3.3-1.5,4.3c-1,1-2.5,1.5-4.3,1.5H1331.5z M1331.5,130h42.8v-1.1c0-4.1-0.5-7.3-1.4-9.5
			c-0.9-2.2-2.5-3.8-4.8-4.8c-2.2-0.9-5.4-1.4-9.5-1.4h-11.5c-4.1-0.1-7.3,0.3-9.5,1.3c-2.2,0.9-3.8,2.5-4.8,4.8
			c-0.9,2.2-1.4,5.5-1.4,9.7V130z"/>
	</g>
	<path id="Separator-grey" class="st3" d="M595.3,180.9c1.1,0,2-0.9,2-2V71.4c0-1.1-0.9-2-2-2c-1.1,0-2,0.9-2,2v107.4
		c0,1.1,0.8,2,1.9,2.1C595.2,180.9,595.2,180.9,595.3,180.9z"/>
</g>
</svg>
